<?xml version="1.0" encoding="UTF-8" standalone="no"?>
<!-- Creator: CorelDRAW 2021 (64-Bit) -->

<svg
   xml:space="preserve"
   width="37.930801mm"
   height="37.930801mm"
   version="1.1"
   style="clip-rule:evenodd;fill-rule:evenodd;image-rendering:optimizeQuality;shape-rendering:geometricPrecision;text-rendering:geometricPrecision"
   viewBox="0 0 3793.0801 3793.0801"
   id="svg17379"
   sodipodi:docname="gb_logo_header.svg"
   inkscape:version="1.2.2 (732a01da63, 2022-12-09)"
   xmlns:inkscape="http://www.inkscape.org/namespaces/inkscape"
   xmlns:sodipodi="http://sodipodi.sourceforge.net/DTD/sodipodi-0.dtd"
   xmlns="http://www.w3.org/2000/svg"
   xmlns:svg="http://www.w3.org/2000/svg"><sodipodi:namedview
   id="namedview17381"
   pagecolor="#ffffff"
   bordercolor="#000000"
   borderopacity="0.25"
   inkscape:showpageshadow="2"
   inkscape:pageopacity="0.0"
   inkscape:pagecheckerboard="0"
   inkscape:deskcolor="#d1d1d1"
   inkscape:document-units="mm"
   showgrid="false"
   inkscape:zoom="0.46235269"
   inkscape:cx="70.292659"
   inkscape:cy="73.536935"
   inkscape:window-width="1366"
   inkscape:window-height="705"
   inkscape:window-x="-8"
   inkscape:window-y="-8"
   inkscape:window-maximized="1"
   inkscape:current-layer="Capa_x0020_1" />
 <defs
   id="defs17366">
  <style
   type="text/css"
   id="style17364">
   <![CDATA[
    .fil1 {fill:#242221}
    .fil0 {fill:#E6E6E6}
   ]]>
  </style>
 </defs>
 <g
   id="Capa_x0020_1"
   inkscape:label="Capa 1"
   inkscape:groupmode="layer"
   transform="translate(-8603.46,-12953.46)">
  <metadata
   id="CorelCorpID_0Corel-Layer" />
  <rect
   class="fil0"
   x="8603.46"
   y="12953.46"
   width="3793.0801"
   height="3793.0801"
   rx="496.01999"
   ry="496.01999"
   id="rect17369" />
  <g
   id="_1692418257504">
   <path
   class="fil1"
   d="m 10411.98,14150.57 -686.39,396.28 v 894.22 l 686.39,396.3 v 482.05 l -507.93,-293.25 -595.93,-344.07 v -688.13 -688.13 l 595.93,-344.08 507.93,-293.25 z m 176.04,1686.79 686.38,-396.29 v -894.22 l -686.38,-396.27 v -482.06 l 507.92,293.24 595.94,344.08 v 688.13 688.13 l -595.94,344.07 -507.92,293.24 z"
   id="path17371" />
   <polygon
   class="fil1"
   points="10588.03,15444.98 11005.5,15203.95 11005.5,14756.84 11005.5,14068.72 11005.5,13621.61 10588.03,13380.58 10588.03,14068.72 10588.03,14756.84 "
   id="polygon17373" />
   <polygon
   class="fil1"
   points="9994.52,14783.99 9994.52,15919.22 10411.99,15919.22 10411.99,14542.96 "
   id="polygon17375" />
  </g>
 </g>
</svg>
