<?xml version="1.0" encoding="UTF-8" standalone="no"?>
<!-- Creator: CorelDRAW 2021 (64-Bit) -->

<svg
   xml:space="preserve"
   width="33.3498mm"
   height="41.115601mm"
   version="1.1"
   style="clip-rule:evenodd;fill-rule:evenodd;image-rendering:optimizeQuality;shape-rendering:geometricPrecision;text-rendering:geometricPrecision"
   viewBox="0 0 3334.98 4111.56"
   id="svg5212"
   sodipodi:docname="gb_logo_negro.svg"
   inkscape:version="1.2.2 (732a01da63, 2022-12-09)"
   xmlns:inkscape="http://www.inkscape.org/namespaces/inkscape"
   xmlns:sodipodi="http://sodipodi.sourceforge.net/DTD/sodipodi-0.dtd"
   xmlns="http://www.w3.org/2000/svg"
   xmlns:svg="http://www.w3.org/2000/svg"><sodipodi:namedview
   id="namedview5214"
   pagecolor="#ffffff"
   bordercolor="#000000"
   borderopacity="0.25"
   inkscape:showpageshadow="2"
   inkscape:pageopacity="0.0"
   inkscape:pagecheckerboard="0"
   inkscape:deskcolor="#d1d1d1"
   inkscape:document-units="mm"
   showgrid="false"
   inkscape:zoom="0.46235269"
   inkscape:cx="61.641254"
   inkscape:cy="-93.002594"
   inkscape:window-width="1366"
   inkscape:window-height="705"
   inkscape:window-x="-8"
   inkscape:window-y="-8"
   inkscape:window-maximized="1"
   inkscape:current-layer="Capa_x0020_1" />
 <defs
   id="defs5199">
  <style
   type="text/css"
   id="style5197">
   <![CDATA[
    .fil0 {fill:none}
    .fil1 {fill:#1A1A1A}
   ]]>
  </style>
 
   
   
   
  </defs>
 <g
   id="Capa_x0020_1"
   inkscape:label="Capa 1"
   inkscape:groupmode="layer"
   transform="translate(-8832.51,-12794.22)">
  <metadata
   id="CorelCorpID_0Corel-Layer" />
  
  <path
   class="fil1"
   d="m 10376.86,13871.47 -960.29,554.41 v 1251.05 l 960.29,554.44 v 674.41 l -710.62,-410.27 -833.73,-481.37 v -962.72 -962.72 l 833.73,-481.38 710.62,-410.27 z m 246.28,2359.88 960.28,-554.42 v -1251.05 l -960.28,-554.4 v -674.42 l 710.6,410.26 833.75,481.38 v 962.72 962.72 l -833.75,481.37 -710.6,410.25 z"
   id="path5204" /><polygon
   class="fil1"
   points="11207.21,13131.43 10623.15,12794.22 10623.15,13756.95 10623.15,14719.67 10623.15,15682.4 11207.21,15345.19 11207.21,14719.67 11207.21,13756.95 "
   id="polygon5206" /><polygon
   class="fil1"
   points="9792.81,14757.64 9792.81,16345.89 10376.87,16345.89 10376.87,14420.44 "
   id="polygon5208" />
 </g>
</svg>
